# Blender v2.79 (sub 0) OBJ File: '3DShapes.blend'
# www.blender.org
mtllib Pyramid.mtl
o Cone
v 0.000000 0.003267 -5.000000
v 4.330127 0.003267 -2.500000
v 4.330127 0.003267 2.500000
v -0.000000 0.003267 5.000000
v 0.000000 7.003267 0.000000
v -4.330127 0.003267 2.500000
v -4.330127 0.003267 -2.500000
vn 0.4252 0.5261 -0.7365
vn 0.8504 0.5261 0.0000
vn 0.4252 0.5261 0.7365
vn -0.4252 0.5261 0.7365
vn -0.8504 0.5261 0.0000
vn -0.4252 0.5261 -0.7365
vn 0.0000 -1.0000 0.0000
usemtl None
s off
f 1//1 5//1 2//1
f 2//2 5//2 3//2
f 3//3 5//3 4//3
f 4//4 5//4 6//4
f 6//5 5//5 7//5
f 7//6 5//6 1//6
f 1//7 2//7 3//7 4//7 6//7 7//7
