# Blender v2.79 (sub 0) OBJ File: '3DShapes.blend'
# www.blender.org
mtllib Torus.mtl
o Cube_Cube.008
v -5.484246 -0.001058 2.299916
v -5.484246 1.998942 2.299916
v -0.020146 1.998942 -5.932133
v -0.020146 -0.001058 -5.932133
v -3.484246 -0.001058 2.299916
v -3.484246 1.998942 2.299916
v -5.484246 -0.001058 -1.700084
v -5.484246 1.998942 -1.700084
v -4.484246 -0.001058 4.031967
v -4.484246 1.998942 4.031967
v -3.484246 1.998942 2.299916
v -3.484246 -0.001058 2.299916
v -1.020145 -0.001058 6.031967
v -1.020145 1.998942 6.031967
v -0.020144 1.998942 4.299916
v -0.020144 -0.001058 4.299916
v 0.979856 -0.001058 6.031967
v 0.979856 1.998942 6.031967
v -0.020144 1.998942 4.299916
v -0.020144 -0.001058 4.299916
v 4.443957 -0.001058 4.031967
v 4.443957 1.998942 4.031967
v 3.443957 1.998942 2.299917
v 3.443957 -0.001058 2.299917
v 5.443957 -0.001058 2.299916
v 5.443957 1.998942 2.299916
v 3.443957 1.998942 2.299917
v 3.443957 -0.001058 2.299917
v 5.443957 -0.001058 -1.700084
v 5.443957 1.998942 -1.700084
v 3.443957 1.998942 -1.700083
v 3.443957 -0.001058 -1.700083
v 4.443956 -0.001058 -3.432135
v 4.443956 1.998942 -3.432135
v 3.443957 1.998942 -1.700083
v 3.443957 -0.001058 -1.700083
v 0.979854 -0.001058 -5.432134
v 0.979854 1.998942 -5.432134
v -0.020145 1.998942 -3.700082
v -0.020145 -0.001058 -3.700082
v -1.020146 -0.001058 -5.432133
v -1.020146 1.998942 -5.432133
v -0.020145 1.998942 -3.700082
v -0.020145 -0.001058 -3.700082
v -5.494829 -0.001058 -2.860892
v -5.494829 1.998942 -2.860892
v -3.482217 1.998942 -1.707654
v -3.482217 -0.001058 -1.707654
v -4.484247 1.998942 -3.432131
v -4.484247 -0.001058 -3.432131
v -5.506254 -0.001058 3.467323
v -5.506254 1.998942 3.467323
v -0.020144 1.998942 6.631967
v -0.020144 -0.001058 6.631967
v 5.463573 -0.001058 3.465942
v 5.463573 1.998942 3.465942
v 5.463573 -0.001058 -2.866109
v 5.463573 1.998942 -2.866109
vn -1.0000 0.0000 0.0000
vn -1.0000 0.0000 0.0091
vn 1.0000 0.0000 0.0005
vn -0.4836 0.0000 0.8753
vn 0.0000 -1.0000 0.0000
vn 0.0000 1.0000 -0.0000
vn 0.0000 0.0000 1.0000
vn -0.5000 0.0000 0.8660
vn 0.5000 0.0000 -0.8660
vn 0.5145 0.0000 0.8575
vn 0.9999 0.0000 -0.0168
vn 0.5000 0.0000 0.8660
vn -0.5000 0.0000 -0.8660
vn 1.0000 0.0000 0.0000
vn 0.4854 0.0000 -0.8743
vn -0.4472 0.0000 -0.8944
vn -0.4921 0.0000 -0.8705
vn 0.4988 0.0000 0.8667
vn 0.4472 0.0000 -0.8944
vn -0.9998 0.0000 -0.0188
vn -0.5145 0.0000 0.8575
vn 0.4854 0.0000 0.8743
vn 0.9999 0.0000 0.0168
usemtl None
s off
f 1//1 2//1 8//1 7//1
f 46//2 45//2 7//2 8//2
f 48//3 47//3 6//3 5//3
f 52//4 51//4 9//4 10//4
f 7//5 48//5 5//5 1//5
f 47//6 8//6 2//6 6//6
f 9//5 12//5 16//5 13//5
f 1//5 5//5 12//5 9//5 51//5
f 6//6 2//6 52//6 10//6 11//6
f 5//7 6//7 11//7 12//7
f 15//6 14//6 53//6 18//6 19//6
f 10//8 9//8 13//8 14//8
f 11//6 10//6 14//6 15//6
f 12//9 11//9 15//9 16//9
f 17//5 20//5 24//5 21//5
f 16//7 15//7 19//7 20//7
f 13//5 16//5 20//5 17//5 54//5
f 53//10 54//10 17//10 18//10
f 56//11 55//11 25//11 26//11
f 18//12 17//12 21//12 22//12
f 19//6 18//6 22//6 23//6
f 20//13 19//13 23//13 24//13
f 27//6 26//6 30//6 31//6
f 23//6 22//6 56//6 26//6 27//6
f 24//7 23//7 27//7 28//7
f 21//5 24//5 28//5 25//5 55//5
f 29//5 32//5 36//5 33//5 57//5
f 28//1 27//1 31//1 32//1
f 25//5 28//5 32//5 29//5
f 26//14 25//14 29//14 30//14
f 35//6 34//6 38//6 39//6
f 58//15 57//15 33//15 34//15
f 31//6 30//6 58//6 34//6 35//6
f 32//7 31//7 35//7 36//7
f 40//7 39//7 43//7 44//7
f 36//8 35//8 39//8 40//8
f 33//5 36//5 40//5 37//5
f 34//9 33//9 37//9 38//9
f 41//5 44//5 48//5 50//5
f 37//5 40//5 44//5 41//5 4//5
f 3//16 4//16 41//16 42//16
f 39//6 38//6 3//6 42//6 43//6
f 49//17 50//17 45//17 46//17
f 42//13 41//13 50//13 49//13
f 43//6 42//6 49//6 47//6
f 44//18 43//18 47//18 48//18
f 38//19 37//19 4//19 3//19
f 8//6 47//6 49//6 46//6
f 7//5 45//5 50//5 48//5
f 2//20 1//20 51//20 52//20
f 14//21 13//21 54//21 53//21
f 22//22 21//22 55//22 56//22
f 30//23 29//23 57//23 58//23
